<svg xmlns="http://www.w3.org/2000/svg" viewBox="0 0 128 128" role="img" aria-label="勋港品牌图标">
  <defs>
    <linearGradient id="xg-frame" x1="20" y1="18" x2="108" y2="110" gradientUnits="userSpaceOnUse">
      <stop offset="0" stop-color="#3040A0"/>
      <stop offset="0.56" stop-color="#2359D9"/>
      <stop offset="1" stop-color="#00BCD4"/>
    </linearGradient>
    <linearGradient id="xg-chair" x1="34" y1="38" x2="88" y2="98" gradientUnits="userSpaceOnUse">
      <stop offset="0" stop-color="#3040A0"/>
      <stop offset="1" stop-color="#16223A"/>
    </linearGradient>
    <filter id="xg-soft" x="-20%" y="-20%" width="140%" height="150%">
      <feDropShadow dx="0" dy="10" stdDeviation="10" flood-color="#3040A0" flood-opacity="0.18"/>
    </filter>
  </defs>
  <rect x="6" y="6" width="116" height="116" rx="30" fill="#FFFFFF"/>
  <rect x="10" y="10" width="108" height="108" rx="28" fill="#F7FAFF" stroke="#DDE9F8" stroke-width="2"/>
  <path d="M86 24h5c15 0 25 10 25 25v26h-13V50c0-8-5-13-13-13H43c-11 0-18 7-18 18v23c0 9 6 15 15 15h44v13H39c-16 0-27-11-27-27V55c0-19 13-31 31-31h43Z" fill="url(#xg-frame)" filter="url(#xg-soft)"/>
  <path d="M40 48c8-12 26-9 34 4 5 8 14 11 25 8 3 20-9 34-28 34H48c-11 0-18-7-18-18V64c0-6 3-12 10-16Z" fill="url(#xg-chair)"/>
  <path d="M45 91l-7 18M84 91l8 18M44 104h43" fill="none" stroke="#16223A" stroke-width="8" stroke-linecap="round"/>
  <path d="M91 31l5 13 13 5-13 5-5 13-5-13-13-5 13-5 5-13Z" fill="#00BCD4"/>
</svg>
