<svg xmlns="http://www.w3.org/2000/svg" viewBox="0 0 128 128" role="img" aria-label="勋港单色品牌图标">
  <rect x="6" y="6" width="116" height="116" rx="30" fill="#FFFFFF"/>
  <path d="M86 24h5c15 0 25 10 25 25v26h-13V50c0-8-5-13-13-13H43c-11 0-18 7-18 18v23c0 9 6 15 15 15h44v13H39c-16 0-27-11-27-27V55c0-19 13-31 31-31h43Z" fill="#16223A"/>
  <path d="M40 48c8-12 26-9 34 4 5 8 14 11 25 8 3 20-9 34-28 34H48c-11 0-18-7-18-18V64c0-6 3-12 10-16Z" fill="#16223A"/>
  <path d="M45 91l-7 18M84 91l8 18M44 104h43" fill="none" stroke="#16223A" stroke-width="8" stroke-linecap="round"/>
  <path d="M91 31l5 13 13 5-13 5-5 13-5-13-13-5 13-5 5-13Z" fill="#16223A"/>
</svg>
