<!-- 该文件用于预览勋港首页左上角品牌图标，可作为 favicon、PWA 图标和导航 Logo 的源文件。 -->
<svg xmlns="http://www.w3.org/2000/svg" viewBox="0 0 120 120" role="img" aria-label="勋港品牌图标">
  <defs>
    <linearGradient id="xgAppBg" x1="16" y1="10" x2="102" y2="112" gradientUnits="userSpaceOnUse">
      <stop offset="0" stop-color="#201808" />
      <stop offset="0.48" stop-color="#08090a" />
      <stop offset="1" stop-color="#020203" />
    </linearGradient>
    <linearGradient id="xgGold" x1="18" y1="12" x2="104" y2="108" gradientUnits="userSpaceOnUse">
      <stop offset="0" stop-color="#fff5c6" />
      <stop offset="0.46" stop-color="#e9c866" />
      <stop offset="1" stop-color="#9a6e1f" />
    </linearGradient>
    <linearGradient id="xgSeat" x1="22" y1="66" x2="98" y2="100" gradientUnits="userSpaceOnUse">
      <stop offset="0" stop-color="#ffe493" />
      <stop offset="0.5" stop-color="#d9a435" />
      <stop offset="1" stop-color="#8e5e19" />
    </linearGradient>
    <radialGradient id="xgGlow" cx="35%" cy="22%" r="80%">
      <stop offset="0" stop-color="#fff1b3" stop-opacity="0.46" />
      <stop offset="0.5" stop-color="#e7c76f" stop-opacity="0.13" />
      <stop offset="1" stop-color="#070809" stop-opacity="0" />
    </radialGradient>
    <filter id="xgDrop" x="-20%" y="-20%" width="140%" height="150%">
      <feDropShadow dx="0" dy="9" stdDeviation="8" flood-color="#000000" flood-opacity="0.42" />
    </filter>
    <filter id="xgSymbolShadow" x="-20%" y="-20%" width="140%" height="150%">
      <feDropShadow dx="0" dy="4" stdDeviation="3" flood-color="#000000" flood-opacity="0.35" />
    </filter>
  </defs>
  <rect width="120" height="120" rx="28" fill="#050506" />
  <rect x="5" y="5" width="110" height="110" rx="28" fill="url(#xgAppBg)" filter="url(#xgDrop)" />
  <rect x="8" y="8" width="104" height="104" rx="26" fill="url(#xgGlow)" stroke="url(#xgGold)" stroke-width="5" />
  <rect x="17" y="17" width="86" height="86" rx="21" fill="none" stroke="#fff4bf" stroke-width="1.6" opacity="0.2" />
  <path d="M22 34C34 19 56 15 76 20" fill="none" stroke="#f2cf72" stroke-width="6" stroke-linecap="round" opacity="0.5" />
  <g filter="url(#xgSymbolShadow)">
    <path d="M34 36C43 26 77 26 86 36C92 43 91 57 84 66C71 58 49 58 36 66C29 57 28 43 34 36Z" fill="#fff1b3" />
    <path d="M25 75C38 64 82 64 95 75C102 81 99 92 88 97C72 103 48 103 32 97C21 92 18 81 25 75Z" fill="url(#xgSeat)" />
    <path d="M44 92L39 108M76 92L81 108M41 103H79" fill="none" stroke="#fff1b3" stroke-width="8" stroke-linecap="round" />
    <path d="M88 18L93 30L105 35L93 40L88 52L83 40L71 35L83 30Z" fill="#fff1b3" />
  </g>
  <path d="M18 18H72" fill="none" stroke="#ffffff" stroke-width="1.5" stroke-linecap="round" opacity="0.16" />
</svg>
